<?xml version="1.0" standalone="no"?>
<!DOCTYPE svg PUBLIC "-//W3C//DTD SVG 20010904//EN"
 "http://www.w3.org/TR/2001/REC-SVG-20010904/DTD/svg10.dtd">
<svg version="1.0" xmlns="http://www.w3.org/2000/svg"
 width="700.000000pt" height="700.000000pt" viewBox="0 0 700.000000 700.000000"
 preserveAspectRatio="xMidYMid meet">
<metadata>
Created by potrace 1.14, written by Peter Selinger 2001-2017
</metadata>
<g transform="translate(0.000000,700.000000) scale(0.100000,-0.100000)"
fill="#000000" stroke="none">
<path d="M3290 6914 c-113 -47 -268 -112 -345 -144 -77 -32 -273 -113 -435
-180 -162 -67 -308 -128 -325 -135 -28 -12 -311 -129 -904 -374 -135 -56 -248
-104 -252 -108 -5 -5 -137 -319 -294 -698 -157 -380 -294 -710 -305 -735 -11
-25 -42 -99 -69 -165 -27 -66 -119 -290 -205 -498 l-157 -377 97 -233 c53
-127 118 -286 146 -352 27 -66 64 -156 83 -200 18 -44 147 -354 285 -690 139
-335 289 -698 334 -805 l82 -195 414 -172 c228 -94 431 -178 450 -187 19 -8
100 -42 180 -74 144 -59 840 -347 1228 -508 l202 -84 313 129 c1145 474 1984
822 2082 863 l79 33 54 130 c30 72 60 144 67 160 7 17 84 201 170 410 179 434
231 558 250 600 7 17 22 53 33 80 10 28 117 285 236 573 l216 523 -230 557
c-370 891 -470 1134 -637 1536 l-158 380 -110 46 c-60 26 -238 100 -395 165
-157 64 -298 123 -315 131 -29 13 -464 193 -675 279 -58 24 -253 105 -435 180
-368 153 -544 225 -548 225 -1 0 -94 -39 -207 -86z m275 -10 c31 -13 676 -280
820 -339 44 -18 240 -99 435 -180 699 -290 946 -392 1025 -424 l80 -33 379
-916 c208 -505 387 -935 396 -957 10 -22 66 -156 124 -297 l106 -258 -81 -197
c-45 -109 -87 -211 -94 -228 -8 -16 -84 -201 -170 -410 -87 -209 -166 -399
-176 -422 -10 -23 -19 -44 -19 -47 0 -2 -24 -62 -54 -133 -30 -70 -91 -218
-136 -328 -45 -110 -90 -218 -99 -240 -10 -22 -53 -126 -97 -231 l-79 -192
-140 -57 c-130 -54 -354 -147 -1250 -518 -192 -80 -456 -189 -585 -242 -129
-53 -253 -104 -275 -114 -22 -10 -70 -30 -106 -45 l-66 -28 -139 57 c-76 31
-152 63 -169 70 -16 8 -163 69 -325 135 -162 67 -308 128 -325 135 -16 7 -147
61 -290 120 -430 178 -1078 446 -1110 460 -16 7 -39 16 -50 19 -14 4 -32 36
-62 109 -23 56 -137 332 -253 612 -116 281 -270 652 -342 825 -71 173 -135
329 -143 345 -7 17 -61 146 -119 287 l-106 258 46 112 c25 62 52 127 59 143
12 26 171 411 617 1490 66 160 148 358 182 440 35 83 71 170 81 195 21 52 -31
26 465 231 162 66 309 127 325 134 46 20 609 253 705 292 47 19 99 41 115 48
17 7 190 79 385 160 195 80 369 152 385 159 62 28 69 28 130 0z"/>
<path d="M2689 4216 c-2 -2 -26 -6 -54 -9 -162 -16 -347 -98 -459 -206 -148
-142 -218 -305 -217 -507 1 -157 37 -283 115 -403 163 -250 460 -372 829 -340
128 12 341 75 361 108 7 11 14 56 21 141 4 41 8 92 11 113 7 64 -18 43 -65
-53 -94 -194 -226 -275 -446 -274 -174 1 -307 57 -435 184 -169 166 -240 392
-207 655 10 77 30 141 69 225 53 111 150 210 259 264 78 38 83 40 194 60 195
35 377 -22 477 -148 41 -51 90 -147 103 -198 4 -16 14 -28 21 -28 11 0 13 10
9 43 -2 23 -7 73 -10 110 -6 74 -14 135 -20 154 -8 24 -156 84 -240 97 -48 8
-310 18 -316 12z"/>
<path d="M3499 4189 c-20 -12 -7 -19 47 -24 76 -7 106 -19 128 -49 21 -27 21
-38 22 -620 2 -646 1 -652 -54 -675 -25 -10 -76 -18 -130 -20 -13 -1 -22 -6
-20 -13 6 -17 558 -18 558 0 0 6 -6 12 -12 13 -122 6 -148 15 -175 56 -15 23
-17 61 -18 329 l-1 304 437 0 c341 0 438 -3 441 -12 2 -7 4 -141 3 -298 -2
-312 -5 -333 -59 -358 -15 -8 -53 -15 -83 -17 -30 -1 -59 -7 -66 -14 -6 -6 -7
-11 -1 -12 12 -1 557 -1 564 0 2 1 -1 6 -7 12 -6 6 -36 13 -66 14 -70 4 -112
26 -126 66 -8 22 -10 213 -8 630 l2 597 24 26 c25 27 52 35 126 41 45 3 64 10
53 20 -11 11 -550 7 -561 -4 -6 -6 -7 -11 -2 -12 135 -8 168 -19 191 -67 15
-32 18 -70 18 -294 0 -141 -2 -260 -6 -264 -5 -5 -770 -9 -863 -4 -15 0 -12
526 3 562 15 36 61 58 129 62 32 2 59 8 61 15 4 12 -3 13 -58 12 -137 -1 -430
0 -452 3 -14 2 -32 -1 -39 -5z"/>
</g>
</svg>
